<svg id="Layer_1" data-name="Layer 1" xmlns="http://www.w3.org/2000/svg" viewBox="0 0 512 512"><defs><style>.cls-1{fill:#141f38;}</style></defs><title>man-5-glyph</title><path class="cls-1" d="M128.13,171.46c-.06-1.66-.13-3.39-.13-5.06v-7.62l14.21-9.47,63.49-42.37c26.18,14.46,83,42,136.77,42a130.85,130.85,0,0,0,41.54-6.4V166.4c0,1.66-.06,3.39-.13,5.06,0,1.09-.06,2.11-.13,3.2,0,.19-.06.38-.06.58-.19,2.69-.45,5.38-.83,8a2.18,2.18,0,0,1-.06.64c-.13.9-.26,1.86-.45,2.82a1.09,1.09,0,0,1-.06.45c-.19,1.34-.38,2.69-.7,4-.32,1.6-.64,3.14-1,4.67A21.6,21.6,0,0,1,380,198c-1,3.65-2,7.17-3.26,10.69-.64,1.86-1.34,3.78-2.11,5.63s-1.54,3.65-2.37,5.44-1.73,3.58-2.62,5.38-1.79,3.33-2.75,5a45.07,45.07,0,0,1-2.43,4c-.19.26-.32.58-.51.83l-.38.58a.06.06,0,0,1-.06.06c-1,1.6-2,3.07-3.14,4.61a101,101,0,0,1-7.3,9.28c-1.28,1.54-2.62,3-4,4.42-.77.83-1.6,1.66-2.37,2.5s-1.54,1.54-2.3,2.24l-.19.19c-.83.83-1.73,1.66-2.62,2.43a.88.88,0,0,1-.26.19,22.53,22.53,0,0,1-2.62,2.3,40.91,40.91,0,0,1-3.2,2.62,50.46,50.46,0,0,1-4.29,3.26,12.54,12.54,0,0,1-1.6,1.15c-1.86,1.34-3.78,2.62-5.7,3.77a2,2,0,0,1-.45.32c-1.15.77-2.3,1.47-3.52,2.18V303l-64,38.4L192,303V277.12c-1.22-.7-2.37-1.41-3.52-2.18a2,2,0,0,1-.45-.32c-1.92-1.15-3.84-2.43-5.7-3.77a12.54,12.54,0,0,1-1.6-1.15,50.46,50.46,0,0,1-4.29-3.26,40.91,40.91,0,0,1-3.2-2.62,22.53,22.53,0,0,1-2.62-2.3.88.88,0,0,1-.26-.19c-.9-.77-1.79-1.6-2.62-2.43l-.19-.19c-.77-.7-1.54-1.47-2.3-2.24s-1.6-1.66-2.37-2.5c-1.34-1.41-2.69-2.88-4-4.42-2.56-2.94-5-6.08-7.3-9.28-1.09-1.54-2.18-3-3.14-4.61a.06.06,0,0,1-.06-.06L148,235c-.19-.26-.32-.58-.51-.83-.83-1.34-1.6-2.69-2.43-4-1-1.66-1.86-3.33-2.75-5s-1.79-3.58-2.62-5.38-1.6-3.58-2.37-5.44-1.47-3.78-2.11-5.63c-1.22-3.52-2.3-7-3.26-10.69a21.6,21.6,0,0,1-.51-2.18c-.38-1.54-.7-3.07-1-4.67-.32-1.34-.51-2.69-.7-4a1.09,1.09,0,0,1-.06-.45c-.19-1-.32-1.92-.45-2.82a2.18,2.18,0,0,1-.06-.64c-.38-2.62-.64-5.31-.83-8,0-.19-.06-.38-.06-.58C128.19,173.57,128.13,172.54,128.13,171.46Zm214.31-48.12c14.34,0,28.27-2.32,40.92-7.9A128,128,0,0,0,128,128l76.8-51.2S277.71,123.34,342.44,123.34ZM460.61,472.13c-.06-1.86-.19-3.65-.38-5.5-.06-1.54-.19-3-.38-4.54s-.26-2.75-.45-4.16c-.06-.83-.19-1.66-.32-2.5-.06-.32-.06-.64-.13-1-.19-1.34-.45-2.62-.64-3.9-.19-1-.32-1.92-.58-2.88-.26-1.47-.51-2.88-.83-4.29s-.58-2.5-.9-3.78c-.32-1.47-.64-2.88-1.09-4.35-.13-.64-.32-1.28-.51-1.92-.32-1.22-.7-2.43-1.09-3.65s-.83-2.69-1.28-4c-.58-1.92-1.28-3.78-2-5.7-.83-2.37-1.73-4.67-2.75-7-.64-1.54-1.34-3.07-2-4.61l-1.92-4c-.7-1.6-1.54-3.2-2.37-4.74-1.15-2.18-2.3-4.35-3.58-6.46-1-1.79-2-3.52-3.2-5.25l-.38-.58a2.65,2.65,0,0,0-.45-.7c-1-1.54-2-3.07-3-4.54-1.54-2.24-3.14-4.48-4.8-6.59s-3.33-4.29-5.06-6.4c-1.6-1.86-3.2-3.71-4.86-5.5-1.86-2-3.78-4-5.76-6-1.28-1.28-2.56-2.56-3.9-3.78s-2.94-2.69-4.48-4-2.82-2.43-4.22-3.58h-.06c-1.34-1.22-2.75-2.3-4.16-3.39-1.6-1.22-3.26-2.43-4.86-3.58-1.15-.83-2.3-1.66-3.52-2.43s-2.69-1.79-4-2.62c-2.5-1.6-5.06-3.14-7.68-4.67a2.6,2.6,0,0,1-.7-.38c-2.62-1.41-5.31-2.82-8-4.16-1.6-.77-3.14-1.54-4.74-2.24-.06-.06-.19-.06-.26-.13-.51-.26-1-.45-1.47-.64-.9-.45-1.86-.83-2.82-1.22s-1.86-.77-2.82-1.15c-2-.83-4.1-1.6-6.21-2.37l-13.12,7.87V388c0,6.55-6.56,10.81-12.13,7.88l-64.67-34-64.67,34c-5.57,2.93-12.13-1.33-12.13-7.88V325.12l-13.12-7.87c-2.11.77-4.16,1.54-6.21,2.37-1,.38-1.92.77-2.82,1.15s-1.92.77-2.82,1.22c-.45.19-1,.38-1.47.64-.06.06-.19.06-.26.13-1.6.7-3.14,1.47-4.74,2.24-2.69,1.34-5.38,2.75-8,4.16a2.6,2.6,0,0,1-.7.38c-2.62,1.54-5.18,3.07-7.68,4.67-1.34.83-2.69,1.73-4,2.62s-2.37,1.6-3.52,2.43c-1.6,1.15-3.26,2.37-4.86,3.58-1.41,1.09-2.82,2.17-4.16,3.39h-.06c-1.41,1.15-2.82,2.3-4.22,3.58s-3,2.63-4.48,4-2.62,2.5-3.9,3.78c-2,2-3.9,4-5.76,6-1.66,1.79-3.26,3.65-4.86,5.5-1.73,2.11-3.46,4.22-5.06,6.4s-3.26,4.35-4.8,6.59c-1,1.47-2,3-3,4.54a2.65,2.65,0,0,0-.45.7l-.38.58c-1.15,1.73-2.18,3.46-3.2,5.25-1.28,2.11-2.43,4.29-3.58,6.46-.83,1.54-1.66,3.14-2.37,4.74l-1.92,4c-.7,1.54-1.41,3.07-2,4.61-1,2.3-1.92,4.61-2.75,7-.7,1.92-1.41,3.78-2,5.7-.45,1.34-.9,2.69-1.28,4s-.77,2.43-1.09,3.65c-.19.64-.38,1.28-.51,1.92-.45,1.47-.77,2.88-1.09,4.35-.32,1.28-.64,2.5-.9,3.78s-.58,2.82-.83,4.29c-.26,1-.38,1.92-.58,2.88-.19,1.28-.45,2.56-.64,3.9-.06.32-.06.64-.13,1-.13.83-.26,1.66-.32,2.5-.19,1.41-.32,2.75-.45,4.16s-.32,3-.38,4.54c-.19,1.86-.32,3.65-.38,5.5q-.19,3.94-.19,7.87a32,32,0,0,0,32,32H428.8a32,32,0,0,0,32-32Q460.8,476.06,460.61,472.13ZM256,361.87h0Zm60-27.16L280.62,352.4,316,370.09ZM232.38,352.4,197,334.71v35.38Z"/></svg>