<svg id="Layer_1" data-name="Layer 1" xmlns="http://www.w3.org/2000/svg" viewBox="0 0 512 512"><defs><style>.cls-1{fill:#79d3d3;}.cls-2{fill:#17292d;opacity:0.14;}.cls-3{fill:#d9e4e8;}.cls-4{fill:#fff;}.cls-5{fill:#141f38;}</style></defs><title>woman-2-filled</title><path class="cls-1" d="M168.42,384a62,62,0,0,1-61.89-65.24L115.2,153.6C115.2,76,178.36,12.8,256,12.8S396.8,76,396.8,153.6l8.68,165.16A62,62,0,0,1,343.58,384Z"/><path class="cls-2" d="M418.26,318.09,409.6,153.6A153.64,153.64,0,0,0,226,2.95,153.64,153.64,0,0,1,349.64,153.6l8.66,164.49a74.78,74.78,0,0,1-74.67,78.71h60A74.78,74.78,0,0,0,418.26,318.09Z"/><path class="cls-3" d="M448,480a19.22,19.22,0,0,1-19.2,19.2H83.2A19.22,19.22,0,0,1,64,480c0-81.73,61.6-149.33,140.8-158.84v-56c-23.28-16.71-38.4-44.55-38.4-76V160a19.22,19.22,0,0,1,19.2-19.2H326.4A19.22,19.22,0,0,1,345.6,160v32a89,89,0,0,1-26.24,63.36,90.56,90.56,0,0,1-12.16,10.17v55.63C386.4,330.67,448,398.28,448,480Z"/><path class="cls-4" d="M140.8,499.2V343.32A160.23,160.23,0,0,1,192,323.24v41.82a31.77,31.77,0,0,0,31.73,31.74h64.54A31.77,31.77,0,0,0,320,365.07V323.24a160.23,160.23,0,0,1,51.2,20.08V499.2Z"/><path class="cls-5" d="M409.57,357.22a74.34,74.34,0,0,0,8.69-39.13L409.6,153.6a153.6,153.6,0,0,0-307.2,0L93.74,318.09a74.34,74.34,0,0,0,8.69,39.13A172.23,172.23,0,0,0,51.2,480a32,32,0,0,0,32,32H428.8a32,32,0,0,0,32-32A172.23,172.23,0,0,0,409.57,357.22ZM256,268.8q-1.86,0-3.75-.09c-40.28-1.9-73.05-37.61-73.05-79.6V160a6.41,6.41,0,0,1,6.4-6.4H326.4a6.41,6.41,0,0,1,6.4,6.4v32A76.89,76.89,0,0,1,256,268.8Zm-5,25.48q2.49.12,5,.12a102.1,102.1,0,0,0,38.4-7.45v31.36l-38.4,23-38.4-23V286.76A98.6,98.6,0,0,0,251,294.28Zm-46.25,46.2L256,371.2l51.2-30.72v24.59A18.93,18.93,0,0,1,288.27,384H223.73a18.93,18.93,0,0,1-18.93-18.93Zm-85.49-21L128,154.95l0-.67v-.67a128,128,0,1,1,256,0v.67l0,.67,8.66,164.49a48.93,48.93,0,0,1-3.33,20.62q-4.58-3.33-9.39-6.35l-.51-.32q-1.89-1.18-3.82-2.32l-.34-.2q-4.27-2.5-8.68-4.76l-.32-.16q-2.09-1.07-4.22-2.08l-.25-.12A171.54,171.54,0,0,0,320,310.18V271.93A102.2,102.2,0,0,0,358.4,192V160a32,32,0,0,0-32-32H185.6a32,32,0,0,0-32,32v29.11A106.94,106.94,0,0,0,192,271.24v38.94a171.54,171.54,0,0,0-41.82,13.56l-.25.12q-2.13,1-4.22,2.08l-.32.16q-4.42,2.26-8.68,4.76l-.34.2q-1.93,1.14-3.82,2.32l-.51.32q-4.8,3-9.39,6.35A48.94,48.94,0,0,1,119.31,319.44ZM83.2,486.4a6.41,6.41,0,0,1-6.4-6.4A146.9,146.9,0,0,1,128,368.51V486.4Zm70.4,0V350.77a146.64,146.64,0,0,1,14.59-7l.7-.29,1.74-.68,1.79-.69.72-.26q3-1.1,6-2.08v25.28a44.58,44.58,0,0,0,44.53,44.53h64.53a44.58,44.58,0,0,0,44.53-44.53V339.79q3,1,6,2.08l.72.26,1.79.69,1.74.68.7.29a146.64,146.64,0,0,1,14.59,7V486.4Zm275.2,0H384V368.51A146.9,146.9,0,0,1,435.2,480,6.41,6.41,0,0,1,428.8,486.4Z"/><path class="cls-2" d="M326.4,128h-64a32,32,0,0,1,32,32v32a102.34,102.34,0,0,1-70.28,97.12A98.46,98.46,0,0,0,251,294.28,102.4,102.4,0,0,0,358.4,192V160A32,32,0,0,0,326.4,128Z"/></svg>