<svg id="Layer_1" data-name="Layer 1" xmlns="http://www.w3.org/2000/svg" viewBox="0 0 512 512"><defs><style>.cls-1{fill:#79d3d3;}.cls-2{fill:#17292d;opacity:0.14;}.cls-3{fill:#d9e4e8;}.cls-4{fill:#fff;}.cls-5{fill:#141f38;}</style></defs><title>woman-4-filled</title><path class="cls-1" d="M168.42,384a62,62,0,0,1-61.89-65.24L115.2,153.6C115.2,76,178.36,12.8,256,12.8S396.8,76,396.8,153.6l8.68,165.16A62,62,0,0,1,343.58,384Z"/><path class="cls-2" d="M418.26,318.09,409.6,153.6A153.64,153.64,0,0,0,226,2.95,153.64,153.64,0,0,1,349.64,153.6l8.66,164.49a74.78,74.78,0,0,1-74.67,78.71h60A74.78,74.78,0,0,0,418.26,318.09Z"/><path class="cls-3" d="M448,480a19.22,19.22,0,0,1-19.2,19.2H83.2A19.22,19.22,0,0,1,64,480,160,160,0,0,1,194.36,322.78l10.44-2V265.14c-23.28-16.71-38.4-44.55-38.4-76V160a19.22,19.22,0,0,1,19.2-19.2H326.4A19.22,19.22,0,0,1,345.6,160v32a89,89,0,0,1-26.24,63.36,90.63,90.63,0,0,1-12.16,10.17v55.3l10.44,2A160,160,0,0,1,448,480Z"/><path class="cls-4" d="M128,499.2V460.8a64,64,0,0,1,117.34-35.34L256,441.52l10.66-16.06A64,64,0,0,1,384,460.8v38.4Z"/><path class="cls-5" d="M409.56,357.24a74.35,74.35,0,0,0,8.7-39.14L409.6,153.6a153.6,153.6,0,0,0-307.2,0L93.74,318.09a74.35,74.35,0,0,0,8.7,39.14A172.16,172.16,0,0,0,51.2,480a32,32,0,0,0,32,32H428.8a32,32,0,0,0,32-32A172.16,172.16,0,0,0,409.56,357.24Zm-290.25-37.8L128,154.95l0-.67v-.67a128,128,0,1,1,256,0v.67l0,.67,8.66,164.49a48.92,48.92,0,0,1-3.34,20.65A172,172,0,0,0,320,310.21V271.93A102.2,102.2,0,0,0,358.4,192V160a32,32,0,0,0-32-32H185.6a32,32,0,0,0-32,32v29.11A106.94,106.94,0,0,0,192,271.24v39a172,172,0,0,0-69.35,29.88A48.93,48.93,0,0,1,119.31,319.44ZM179.2,189.11V160a6.41,6.41,0,0,1,6.4-6.4H326.4a6.41,6.41,0,0,1,6.4,6.4v32A76.89,76.89,0,0,1,256,268.8q-1.86,0-3.75-.09C212,266.81,179.2,231.1,179.2,189.11Zm17.51,146.26,20.89-3.91V286.76A98.6,98.6,0,0,0,251,294.28q2.49.12,5,.12a102.1,102.1,0,0,0,38.4-7.45v44.51l20.89,3.91a146.92,146.92,0,0,1,102,74.23h-40A76.76,76.76,0,0,0,256,418.38a76.76,76.76,0,0,0-121.23-8.78h-40A146.92,146.92,0,0,1,196.71,335.37ZM192,409.6a51.15,51.15,0,0,1,42.67,22.94L256,464.65l21.33-32.11A51.19,51.19,0,0,1,371.2,460.8v25.6H140.8V460.8A51.26,51.26,0,0,1,192,409.6ZM83.2,486.4a6.41,6.41,0,0,1-6.4-6.4,147,147,0,0,1,7-44.8h35.82a76.64,76.64,0,0,0-4.39,25.6v25.6Zm345.6,0h-32V460.8a76.64,76.64,0,0,0-4.39-25.6h35.82a147,147,0,0,1,7,44.8A6.41,6.41,0,0,1,428.8,486.4Z"/><path class="cls-2" d="M326.4,128h-64a32,32,0,0,1,32,32v32a102.34,102.34,0,0,1-70.28,97.12A98.46,98.46,0,0,0,251,294.28,102.4,102.4,0,0,0,358.4,192V160A32,32,0,0,0,326.4,128Z"/></svg>